# xmcd
#
# Track frame offsets: 
#        150
#        11680
#        24897
#        37305
#        52452
#        66835
#        80006
#        93642
#        106545
#        121351
#        134704
#        148105
#        159758
#        173547
#
# Disc length: 2485 seconds
#
# Revision: 0
# Processed by: cddbd v1.5.2PL0 Copyright (c) Steve Scherf et al.
# Submitted via: ExactAudioCopyFreeDBPlugin 1.0
#
DISCID=c009b30e
DTITLE=Various Artist - Paris Café Blues CD3
DYEAR=2014
DGENRE=Blues
TTITLE0=Sister Rosetta Tharpe - Trouble in mind
TTITLE1=Big Maceo - Worried life blues
TTITLE2=Cootie Williams - When my baby left me
TTITLE3=Hot Lips Page - Uncle sam blues
TTITLE4=Leadbelly - Roberta
TTITLE5=Sonny Terry - Shake down blues
TTITLE6=Roy Milton - R M blues
TTITLE7=Wynonie Harris - Wynonie's blues
TTITLE8=Charles Brown - Drifting blues
TTITLE9=Dinah Washington - Rich man's blues
TTITLE10=T Bone Walker - I'm gonna find my baby
TTITLE11=Muddy Waters - Burying ground blues
TTITLE12=Lightnin' Hopkins - Katie mae
TTITLE13=Arthur "Big Boy" Crudup - That's all right
EXTD=
EXTT0=
EXTT1=
EXTT2=
EXTT3=
EXTT4=
EXTT5=
EXTT6=
EXTT7=
EXTT8=
EXTT9=
EXTT10=
EXTT11=
EXTT12=
EXTT13=
PLAYORDER=
